<svg xmlns="http://www.w3.org/2000/svg" xmlns:xlink="http://www.w3.org/1999/xlink" width="122" height="95" viewBox="0 0 122 95">
  <defs>
    <filter id="Union_4" x="9" y="0" width="113" height="94" filterUnits="userSpaceOnUse">
      <feOffset dy="3" input="SourceAlpha"/>
      <feGaussianBlur stdDeviation="3" result="blur"/>
      <feFlood flood-color="#9ccbe8" flood-opacity="0.4"/>
      <feComposite operator="in" in2="blur"/>
      <feComposite in="SourceGraphic"/>
    </filter>
    <filter id="Shadow" x="0" y="22" width="73" height="73" filterUnits="userSpaceOnUse">
      <feOffset dy="3" input="SourceAlpha"/>
      <feGaussianBlur stdDeviation="3" result="blur-2"/>
      <feFlood flood-opacity="0.161"/>
      <feComposite operator="in" in2="blur-2"/>
      <feComposite in="SourceGraphic"/>
    </filter>
  </defs>
  <g id="Cloud" transform="translate(-188.862 -147.858)">
    <g transform="matrix(1, 0, 0, 1, 188.86, 147.86)" filter="url(#Union_4)">
      <path id="Union_4-2" data-name="Union 4" d="M56.782,76H17.951a11.384,11.384,0,0,1-3.766-.637,18.989,18.989,0,0,1,4.378-37.356s0-.005,0-.008A38.219,38.219,0,1,1,58.122,75.978q-.361.023-.729.023Z" transform="translate(18 6)" fill="#9ccbe8"/>
    </g>
    <g transform="matrix(1, 0, 0, 1, 188.86, 147.86)" filter="url(#Shadow)">
      <circle id="Shadow-2" data-name="Shadow" cx="27.5" cy="27.5" r="27.5" transform="translate(9 28)" fill="rgba(201,234,251,0.5)"/>
    </g>
    <circle id="Ellipse_8" data-name="Ellipse 8" cx="27.5" cy="27.5" r="27.5" transform="translate(197.862 175.858)" fill="rgba(201,234,251,0.4)"/>
  </g>
</svg>
