<svg id="Weather_Widget" data-name="Weather Widget" xmlns="http://www.w3.org/2000/svg" xmlns:xlink="http://www.w3.org/1999/xlink" width="300" height="150" viewBox="0 0 300 150">
  <defs>
    <linearGradient id="linear-gradient" x1="1.015" y1="0.5" x2="0" y2="0.5" gradientUnits="objectBoundingBox">
      <stop offset="0" stop-color="#f37335"/>
      <stop offset="1" stop-color="#fdc830"/>
    </linearGradient>
    <clipPath id="clip-path">
      <rect id="Mask" width="300" height="150" rx="15" transform="translate(30 116)" fill="url(#linear-gradient)"/>
    </clipPath>
    <filter id="Union_4" x="154" y="34" width="113" height="94.001" filterUnits="userSpaceOnUse">
      <feOffset dy="3" input="SourceAlpha"/>
      <feGaussianBlur stdDeviation="3" result="blur"/>
      <feFlood flood-color="#9ccbe8" flood-opacity="0.4"/>
      <feComposite operator="in" in2="blur"/>
      <feComposite in="SourceGraphic"/>
    </filter>
    <filter id="Shadow" x="145" y="56" width="73" height="73" filterUnits="userSpaceOnUse">
      <feOffset dy="3" input="SourceAlpha"/>
      <feGaussianBlur stdDeviation="3" result="blur-2"/>
      <feFlood flood-opacity="0.161"/>
      <feComposite operator="in" in2="blur-2"/>
      <feComposite in="SourceGraphic"/>
    </filter>
  </defs>
  <rect id="Rectangle_26" data-name="Rectangle 26" width="300" height="150" rx="15" fill="url(#linear-gradient)"/>
  <g id="Mask_Group_1" data-name="Mask Group 1" transform="translate(-30 -116)" clip-path="url(#clip-path)">
    <circle id="Ellipse_4" data-name="Ellipse 4" cx="93.5" cy="93.5" r="93.5" transform="translate(158 98)" fill="#fdc830" opacity="0.5" style="mix-blend-mode: overlay;isolation: isolate"/>
  </g>
  <circle id="darkBG" cx="61.5" cy="61.5" r="61.5" transform="translate(160 14)" fill="#323232"/>
  <g id="Cloud" transform="translate(-43.862 -113.858)">
    <g transform="matrix(1, 0, 0, 1, 43.86, 113.86)" filter="url(#Union_4)">
      <path id="Union_4-2" data-name="Union 4" d="M56.782,76H17.951a11.384,11.384,0,0,1-3.766-.637,18.989,18.989,0,0,1,4.378-37.356s0-.005,0-.008A38.219,38.219,0,1,1,58.122,75.978q-.361.023-.729.023Z" transform="translate(163 40)" fill="#9ccbe8"/>
    </g>
    <g transform="matrix(1, 0, 0, 1, 43.86, 113.86)" filter="url(#Shadow)">
      <circle id="Shadow-2" data-name="Shadow" cx="27.5" cy="27.5" r="27.5" transform="translate(154 62)" fill="rgba(201,234,251,0.5)"/>
    </g>
    <circle id="Ellipse_8" data-name="Ellipse 8" cx="27.5" cy="27.5" r="27.5" transform="translate(197.862 175.858)" fill="rgba(201,234,251,0.4)"/>
  </g>
</svg>
